<svg width="107" height="107" viewBox="0 0 107 107" fill="none" xmlns="http://www.w3.org/2000/svg">
<circle cx="53.5" cy="53.5" r="53.5" fill="#FFB660"/>
<g filter="url(#filter0_d_35:1019)">
<path d="M94 69.5262C94 86.1804 93.2932 86.1804 56 86.1804C14 86.1804 13 86.1143 13 65.4888C13 44.8633 31.4086 32.1804 53.5 32.1804C75.5914 32.1804 94 48.9007 94 69.5262Z" fill="#F4F4F4"/>
<path d="M37.1251 34.4307C51.5 30.1804 49.6251 47.1803 36.3848 55.4307C30.3834 59.1704 14 54.4307 14.5 55.4307C14.5 45.2135 21.6445 25.6811 27.1445 22.1811C31.7847 19.2283 33.1251 22.9307 37.1251 34.4307Z" fill="#7889A3"/>
<path d="M37.1251 34.4307C51.5 30.1804 49.6251 47.1803 36.3848 55.4307C30.3834 59.1704 14 54.4307 14.5 55.4307C14.5 45.2135 21.6445 25.6811 27.1445 22.1811C31.7847 19.2283 33.1251 22.9307 37.1251 34.4307Z" fill="#7889A3"/>
<path d="M66 34C46.5 25.93 49 62.1803 60.5 74.6803C65.2875 79.8842 98.3585 91.43 93.5 64.1804C91.6278 53.6804 82.5 23.2503 77 19.7503C72.3599 16.7975 70 22.5 66 34Z" fill="#7889A3"/>
<path d="M66 34C46.5 25.93 49 62.1803 60.5 74.6803C65.2875 79.8842 98.3585 91.43 93.5 64.1804C91.6278 53.6804 82.5 23.2503 77 19.7503C72.3599 16.7975 70 22.5 66 34Z" fill="#7889A3"/>
<g filter="url(#filter1_d_35:1019)">
<circle cx="39" cy="57.1804" r="9" fill="white"/>
</g>
<g filter="url(#filter2_d_35:1019)">
<circle cx="70" cy="57.1804" r="9" fill="white"/>
</g>
<path d="M46.2678 57.2183C46.2678 61.0843 43.1338 64.2183 39.2678 64.2183C35.4018 64.2183 32.2678 61.0843 32.2678 57.2183C32.2678 53.3523 35.4018 50.2183 39.2678 50.2183C43.1338 50.2183 46.2678 53.3523 46.2678 57.2183Z" fill="#EBBA71"/>
<circle cx="42" cy="53.1804" r="1" fill="white"/>
<circle cx="70" cy="57.1804" r="7" fill="#EBBA71"/>
<circle cx="73" cy="53.1804" r="1" fill="white"/>
</g>
<defs>
<filter id="filter0_d_35:1019" x="9" y="18.98" width="89" height="75.2004" filterUnits="userSpaceOnUse" color-interpolation-filters="sRGB">
<feFlood flood-opacity="0" result="BackgroundImageFix"/>
<feColorMatrix in="SourceAlpha" type="matrix" values="0 0 0 0 0 0 0 0 0 0 0 0 0 0 0 0 0 0 127 0" result="hardAlpha"/>
<feOffset dy="4"/>
<feGaussianBlur stdDeviation="2"/>
<feComposite in2="hardAlpha" operator="out"/>
<feColorMatrix type="matrix" values="0 0 0 0 0 0 0 0 0 0 0 0 0 0 0 0 0 0 0.25 0"/>
<feBlend mode="normal" in2="BackgroundImageFix" result="effect1_dropShadow_35:1019"/>
<feBlend mode="normal" in="SourceGraphic" in2="effect1_dropShadow_35:1019" result="shape"/>
</filter>
<filter id="filter1_d_35:1019" x="28" y="48.1804" width="20" height="20" filterUnits="userSpaceOnUse" color-interpolation-filters="sRGB">
<feFlood flood-opacity="0" result="BackgroundImageFix"/>
<feColorMatrix in="SourceAlpha" type="matrix" values="0 0 0 0 0 0 0 0 0 0 0 0 0 0 0 0 0 0 127 0" result="hardAlpha"/>
<feOffset dx="-1" dy="1"/>
<feGaussianBlur stdDeviation="0.5"/>
<feComposite in2="hardAlpha" operator="out"/>
<feColorMatrix type="matrix" values="0 0 0 0 0 0 0 0 0 0 0 0 0 0 0 0 0 0 0.25 0"/>
<feBlend mode="normal" in2="BackgroundImageFix" result="effect1_dropShadow_35:1019"/>
<feBlend mode="normal" in="SourceGraphic" in2="effect1_dropShadow_35:1019" result="shape"/>
</filter>
<filter id="filter2_d_35:1019" x="61" y="48.1804" width="20" height="20" filterUnits="userSpaceOnUse" color-interpolation-filters="sRGB">
<feFlood flood-opacity="0" result="BackgroundImageFix"/>
<feColorMatrix in="SourceAlpha" type="matrix" values="0 0 0 0 0 0 0 0 0 0 0 0 0 0 0 0 0 0 127 0" result="hardAlpha"/>
<feOffset dx="1" dy="1"/>
<feGaussianBlur stdDeviation="0.5"/>
<feComposite in2="hardAlpha" operator="out"/>
<feColorMatrix type="matrix" values="0 0 0 0 0 0 0 0 0 0 0 0 0 0 0 0 0 0 0.25 0"/>
<feBlend mode="normal" in2="BackgroundImageFix" result="effect1_dropShadow_35:1019"/>
<feBlend mode="normal" in="SourceGraphic" in2="effect1_dropShadow_35:1019" result="shape"/>
</filter>
</defs>
</svg>
