<svg width="107" height="107" viewBox="0 0 107 107" fill="none" xmlns="http://www.w3.org/2000/svg">
<circle cx="53.5" cy="53.5" r="53.5" fill="#85A7FF"/>
<g filter="url(#filter0_d_35:1021)">
<g filter="url(#filter1_d_35:1021)">
<path d="M95 67.6248C95 84.2791 94.2932 84.2791 57 84.2791C15 84.2791 14 84.213 14 63.5875C14 42.962 32.4086 30.2791 54.5 30.2791C76.5914 30.2791 95 46.9993 95 67.6248Z" fill="#FFFFFE"/>
</g>
<path d="M70.7083 34.1791C70.7083 44.3964 75.9999 44.7792 80.3284 52.1791C89.4999 62.7792 94.4999 73.9964 94.4999 63.7792C94.4999 53.5619 86.8284 22.1791 81.3284 18.6791C76.6882 15.7263 74.7083 22.6791 70.7083 34.1791Z" fill="white"/>
<path d="M70.7083 34.1791C70.7083 44.3964 75.9999 44.7792 80.3284 52.1791C89.4999 62.7792 94.4999 73.9964 94.4999 63.7792C94.4999 53.5619 86.8284 22.1791 81.3284 18.6791C76.6882 15.7263 74.7083 22.6791 70.7083 34.1791Z" fill="white"/>
<path d="M38.12 34.7792C38.12 44.9964 32.8284 45.3792 28.4999 52.7791C19.3284 63.3792 14.3284 74.5964 14.3284 64.3792C14.3284 54.1619 21.9999 22.7791 27.4999 19.2791C32.1401 16.3263 34.12 23.2792 38.12 34.7792Z" fill="white"/>
<path d="M38.12 34.7792C38.12 44.9964 32.8284 45.3792 28.4999 52.7791C19.3284 63.3792 14.3284 74.5964 14.3284 64.3792C14.3284 54.1619 21.9999 22.7791 27.4999 19.2791C32.1401 16.3263 34.12 23.2792 38.12 34.7792Z" fill="white"/>
<g filter="url(#filter2_d_35:1021)">
<path d="M49 56.2791C49 61.2496 44.9706 65.2791 40 65.2791C35.0294 65.2791 31 61.2496 31 56.2791C31 51.3085 35.0294 47.2791 40 47.2791C44.9706 47.2791 49 51.3085 49 56.2791Z" fill="white"/>
</g>
<g filter="url(#filter3_d_35:1021)">
<circle cx="71" cy="56" r="9" fill="white"/>
</g>
<path d="M47.2678 56.3169C47.2678 60.1829 44.1338 63.3169 40.2678 63.3169C36.4018 63.3169 33.2678 60.1829 33.2678 56.3169C33.2678 52.4509 36.4018 49.3169 40.2678 49.3169C44.1338 49.3169 47.2678 52.4509 47.2678 56.3169Z" fill="#FFAC0C"/>
<circle cx="71" cy="56.2791" r="7" fill="#0CA7FF"/>
<circle cx="43" cy="52.2791" r="1" fill="white"/>
<circle cx="74" cy="52.2791" r="1" fill="white"/>
</g>
<g filter="url(#filter4_i_35:1021)">
<path fill-rule="evenodd" clip-rule="evenodd" d="M92.1898 16.368C94.0226 18.2912 95.7136 20.3508 97.2461 22.5299L97.7977 83.2106C96.3047 85.4174 94.6514 87.5069 92.8543 89.4622L92.1898 16.368ZM80.5686 7.14047L81.4027 98.8981C79.7982 99.8831 78.1377 100.786 76.4271 101.6L75.5446 4.52953C77.2702 5.31286 78.9468 6.18512 80.5686 7.14047ZM63.453 0.702959L64.407 105.648C62.7689 105.989 61.1033 106.255 59.414 106.442L58.4464 0C60.1393 0.156676 61.8094 0.392232 63.453 0.702959ZM45.8756 0.302675L46.8398 106.365C45.1447 106.156 43.474 105.868 41.8318 105.504L40.8841 1.255C42.5199 0.861105 44.1851 0.542379 45.8756 0.302675ZM27.3258 6.57309L28.1791 100.435C26.4435 99.5034 24.7652 98.4783 23.151 97.367L22.3544 9.73248C23.9485 8.59175 25.6079 7.53639 27.3258 6.57309ZM11.9349 19.5266L12.5552 87.762C10.6825 85.5437 8.98697 83.171 7.49048 80.6656L7 26.713C8.45106 24.1802 10.1033 21.7775 11.9349 19.5266Z" fill="#AAAAAA"/>
</g>
<defs>
<filter id="filter0_d_35:1021" x="10" y="18" width="89" height="74.2791" filterUnits="userSpaceOnUse" color-interpolation-filters="sRGB">
<feFlood flood-opacity="0" result="BackgroundImageFix"/>
<feColorMatrix in="SourceAlpha" type="matrix" values="0 0 0 0 0 0 0 0 0 0 0 0 0 0 0 0 0 0 127 0" result="hardAlpha"/>
<feOffset dy="4"/>
<feGaussianBlur stdDeviation="2"/>
<feComposite in2="hardAlpha" operator="out"/>
<feColorMatrix type="matrix" values="0 0 0 0 0 0 0 0 0 0 0 0 0 0 0 0 0 0 0.25 0"/>
<feBlend mode="normal" in2="BackgroundImageFix" result="effect1_dropShadow_35:1021"/>
<feBlend mode="normal" in="SourceGraphic" in2="effect1_dropShadow_35:1021" result="shape"/>
</filter>
<filter id="filter1_d_35:1021" x="6" y="30.2791" width="89" height="62" filterUnits="userSpaceOnUse" color-interpolation-filters="sRGB">
<feFlood flood-opacity="0" result="BackgroundImageFix"/>
<feColorMatrix in="SourceAlpha" type="matrix" values="0 0 0 0 0 0 0 0 0 0 0 0 0 0 0 0 0 0 127 0" result="hardAlpha"/>
<feOffset dx="-4" dy="4"/>
<feGaussianBlur stdDeviation="2"/>
<feComposite in2="hardAlpha" operator="out"/>
<feColorMatrix type="matrix" values="0 0 0 0 0 0 0 0 0 0 0 0 0 0 0 0 0 0 0.25 0"/>
<feBlend mode="normal" in2="BackgroundImageFix" result="effect1_dropShadow_35:1021"/>
<feBlend mode="normal" in="SourceGraphic" in2="effect1_dropShadow_35:1021" result="shape"/>
</filter>
<filter id="filter2_d_35:1021" x="29" y="47.2791" width="20" height="20" filterUnits="userSpaceOnUse" color-interpolation-filters="sRGB">
<feFlood flood-opacity="0" result="BackgroundImageFix"/>
<feColorMatrix in="SourceAlpha" type="matrix" values="0 0 0 0 0 0 0 0 0 0 0 0 0 0 0 0 0 0 127 0" result="hardAlpha"/>
<feOffset dx="-1" dy="1"/>
<feGaussianBlur stdDeviation="0.5"/>
<feComposite in2="hardAlpha" operator="out"/>
<feColorMatrix type="matrix" values="0 0 0 0 0 0 0 0 0 0 0 0 0 0 0 0 0 0 0.25 0"/>
<feBlend mode="normal" in2="BackgroundImageFix" result="effect1_dropShadow_35:1021"/>
<feBlend mode="normal" in="SourceGraphic" in2="effect1_dropShadow_35:1021" result="shape"/>
</filter>
<filter id="filter3_d_35:1021" x="62" y="47" width="20" height="20" filterUnits="userSpaceOnUse" color-interpolation-filters="sRGB">
<feFlood flood-opacity="0" result="BackgroundImageFix"/>
<feColorMatrix in="SourceAlpha" type="matrix" values="0 0 0 0 0 0 0 0 0 0 0 0 0 0 0 0 0 0 127 0" result="hardAlpha"/>
<feOffset dx="1" dy="1"/>
<feGaussianBlur stdDeviation="0.5"/>
<feComposite in2="hardAlpha" operator="out"/>
<feColorMatrix type="matrix" values="0 0 0 0 0 0 0 0 0 0 0 0 0 0 0 0 0 0 0.25 0"/>
<feBlend mode="normal" in2="BackgroundImageFix" result="effect1_dropShadow_35:1021"/>
<feBlend mode="normal" in="SourceGraphic" in2="effect1_dropShadow_35:1021" result="shape"/>
</filter>
<filter id="filter4_i_35:1021" x="7" y="0" width="90.7976" height="110.442" filterUnits="userSpaceOnUse" color-interpolation-filters="sRGB">
<feFlood flood-opacity="0" result="BackgroundImageFix"/>
<feBlend mode="normal" in="SourceGraphic" in2="BackgroundImageFix" result="shape"/>
<feColorMatrix in="SourceAlpha" type="matrix" values="0 0 0 0 0 0 0 0 0 0 0 0 0 0 0 0 0 0 127 0" result="hardAlpha"/>
<feOffset dy="4"/>
<feGaussianBlur stdDeviation="2"/>
<feComposite in2="hardAlpha" operator="arithmetic" k2="-1" k3="1"/>
<feColorMatrix type="matrix" values="0 0 0 0 0 0 0 0 0 0 0 0 0 0 0 0 0 0 0.25 0"/>
<feBlend mode="normal" in2="shape" result="effect1_innerShadow_35:1021"/>
</filter>
</defs>
</svg>
