<svg width="107" height="107" viewBox="0 0 107 107" fill="none" xmlns="http://www.w3.org/2000/svg">
<circle cx="53.5" cy="53.5" r="53.5" fill="#85A7FF"/>
<g filter="url(#filter0_d_35:1020)">
<g filter="url(#filter1_d_35:1020)">
<path d="M95 67.6248C95 84.2791 94.2932 84.2791 57 84.2791C15 84.2791 14 84.213 14 63.5875C14 42.962 32.4086 30.2791 54.5 30.2791C76.5914 30.2791 95 46.9993 95 67.6248Z" fill="#FFFFFE"/>
</g>
<path d="M70.7083 34.1791C70.7083 44.3964 75.9999 44.7792 80.3284 52.1791C89.4999 62.7792 94.4999 73.9964 94.4999 63.7792C94.4999 53.5619 86.8284 22.1791 81.3284 18.6791C76.6882 15.7263 74.7083 22.6791 70.7083 34.1791Z" fill="white"/>
<path d="M70.7083 34.1791C70.7083 44.3964 75.9999 44.7792 80.3284 52.1791C89.4999 62.7792 94.4999 73.9964 94.4999 63.7792C94.4999 53.5619 86.8284 22.1791 81.3284 18.6791C76.6882 15.7263 74.7083 22.6791 70.7083 34.1791Z" fill="white"/>
<path d="M38.12 34.7792C38.12 44.9964 32.8284 45.3792 28.4999 52.7791C19.3284 63.3792 14.3284 74.5964 14.3284 64.3792C14.3284 54.1619 21.9999 22.7791 27.4999 19.2791C32.1401 16.3263 34.12 23.2792 38.12 34.7792Z" fill="white"/>
<path d="M38.12 34.7792C38.12 44.9964 32.8284 45.3792 28.4999 52.7791C19.3284 63.3792 14.3284 74.5964 14.3284 64.3792C14.3284 54.1619 21.9999 22.7791 27.4999 19.2791C32.1401 16.3263 34.12 23.2792 38.12 34.7792Z" fill="white"/>
<g filter="url(#filter2_d_35:1020)">
<path d="M49 56.2791C49 61.2496 44.9706 65.2791 40 65.2791C35.0294 65.2791 31 61.2496 31 56.2791C31 51.3085 35.0294 47.2791 40 47.2791C44.9706 47.2791 49 51.3085 49 56.2791Z" fill="white"/>
</g>
<g filter="url(#filter3_d_35:1020)">
<circle cx="71" cy="56" r="9" fill="white"/>
</g>
<path d="M47.2678 56.3169C47.2678 60.1829 44.1338 63.3169 40.2678 63.3169C36.4018 63.3169 33.2678 60.1829 33.2678 56.3169C33.2678 52.4509 36.4018 49.3169 40.2678 49.3169C44.1338 49.3169 47.2678 52.4509 47.2678 56.3169Z" fill="#FFAC0C"/>
<circle cx="71" cy="56.2791" r="7" fill="#0CA7FF"/>
<circle cx="43" cy="52.2791" r="1" fill="white"/>
<circle cx="74" cy="52.2791" r="1" fill="white"/>
</g>
<defs>
<filter id="filter0_d_35:1020" x="10" y="18" width="89" height="74.2791" filterUnits="userSpaceOnUse" color-interpolation-filters="sRGB">
<feFlood flood-opacity="0" result="BackgroundImageFix"/>
<feColorMatrix in="SourceAlpha" type="matrix" values="0 0 0 0 0 0 0 0 0 0 0 0 0 0 0 0 0 0 127 0" result="hardAlpha"/>
<feOffset dy="4"/>
<feGaussianBlur stdDeviation="2"/>
<feComposite in2="hardAlpha" operator="out"/>
<feColorMatrix type="matrix" values="0 0 0 0 0 0 0 0 0 0 0 0 0 0 0 0 0 0 0.25 0"/>
<feBlend mode="normal" in2="BackgroundImageFix" result="effect1_dropShadow_35:1020"/>
<feBlend mode="normal" in="SourceGraphic" in2="effect1_dropShadow_35:1020" result="shape"/>
</filter>
<filter id="filter1_d_35:1020" x="6" y="30.2791" width="89" height="62" filterUnits="userSpaceOnUse" color-interpolation-filters="sRGB">
<feFlood flood-opacity="0" result="BackgroundImageFix"/>
<feColorMatrix in="SourceAlpha" type="matrix" values="0 0 0 0 0 0 0 0 0 0 0 0 0 0 0 0 0 0 127 0" result="hardAlpha"/>
<feOffset dx="-4" dy="4"/>
<feGaussianBlur stdDeviation="2"/>
<feComposite in2="hardAlpha" operator="out"/>
<feColorMatrix type="matrix" values="0 0 0 0 0 0 0 0 0 0 0 0 0 0 0 0 0 0 0.25 0"/>
<feBlend mode="normal" in2="BackgroundImageFix" result="effect1_dropShadow_35:1020"/>
<feBlend mode="normal" in="SourceGraphic" in2="effect1_dropShadow_35:1020" result="shape"/>
</filter>
<filter id="filter2_d_35:1020" x="29" y="47.2791" width="20" height="20" filterUnits="userSpaceOnUse" color-interpolation-filters="sRGB">
<feFlood flood-opacity="0" result="BackgroundImageFix"/>
<feColorMatrix in="SourceAlpha" type="matrix" values="0 0 0 0 0 0 0 0 0 0 0 0 0 0 0 0 0 0 127 0" result="hardAlpha"/>
<feOffset dx="-1" dy="1"/>
<feGaussianBlur stdDeviation="0.5"/>
<feComposite in2="hardAlpha" operator="out"/>
<feColorMatrix type="matrix" values="0 0 0 0 0 0 0 0 0 0 0 0 0 0 0 0 0 0 0.25 0"/>
<feBlend mode="normal" in2="BackgroundImageFix" result="effect1_dropShadow_35:1020"/>
<feBlend mode="normal" in="SourceGraphic" in2="effect1_dropShadow_35:1020" result="shape"/>
</filter>
<filter id="filter3_d_35:1020" x="62" y="47" width="20" height="20" filterUnits="userSpaceOnUse" color-interpolation-filters="sRGB">
<feFlood flood-opacity="0" result="BackgroundImageFix"/>
<feColorMatrix in="SourceAlpha" type="matrix" values="0 0 0 0 0 0 0 0 0 0 0 0 0 0 0 0 0 0 127 0" result="hardAlpha"/>
<feOffset dx="1" dy="1"/>
<feGaussianBlur stdDeviation="0.5"/>
<feComposite in2="hardAlpha" operator="out"/>
<feColorMatrix type="matrix" values="0 0 0 0 0 0 0 0 0 0 0 0 0 0 0 0 0 0 0.25 0"/>
<feBlend mode="normal" in2="BackgroundImageFix" result="effect1_dropShadow_35:1020"/>
<feBlend mode="normal" in="SourceGraphic" in2="effect1_dropShadow_35:1020" result="shape"/>
</filter>
</defs>
</svg>
