<svg width="115" height="115" viewBox="0 0 115 115" fill="none" xmlns="http://www.w3.org/2000/svg">
<g filter="url(#filter0_d_35:1022)">
<circle cx="57.5" cy="53.5" r="53.5" fill="#FF5959"/>
<g filter="url(#filter1_d_35:1022)">
<path d="M98 68.3458C98 85 97.2932 85 60 85C18 85 17 84.9339 17 64.3084C17 43.6829 35.4086 31 57.5 31C79.5914 31 98 47.7203 98 68.3458Z" fill="white"/>
<path fill-rule="evenodd" clip-rule="evenodd" d="M79.092 58.7132C72.7408 58.7132 59.092 25.7132 73.092 31.7132C73.2661 31.2126 73.4364 30.7217 73.6032 30.2406L73.6035 30.2397C77.2696 19.6689 79.2741 13.8889 83.7122 16.7131C89.2122 20.2131 97.592 52.9959 97.592 63.2131C97.592 73.4304 87.092 69.2132 79.092 58.7132Z" fill="#FFBB38"/>
<path fill-rule="evenodd" clip-rule="evenodd" d="M49 68.2131C60 64.2131 66 20.7131 40.5 31.7131C39.7783 29.6381 39.1587 27.7274 38.6008 26.0066C36.0666 18.1907 34.8029 14.2931 31 16.7131C25.5 20.2131 18 46.9959 18 57.2132C18 67.4304 31 75.7131 49 68.2131Z" fill="#564D48"/>
<g filter="url(#filter2_d_35:1022)">
<circle cx="43" cy="56" r="9" fill="white"/>
</g>
<g filter="url(#filter3_d_35:1022)">
<circle cx="74" cy="56" r="9" fill="white"/>
</g>
<path d="M50.2678 56.0378C50.2678 59.9038 47.1338 63.0378 43.2678 63.0378C39.4018 63.0378 36.2678 59.9038 36.2678 56.0378C36.2678 52.1719 39.4018 49.0378 43.2678 49.0378C47.1338 49.0378 50.2678 52.1719 50.2678 56.0378Z" fill="black"/>
<circle cx="46" cy="52" r="1" fill="white"/>
<circle cx="46" cy="52" r="1" fill="white"/>
<circle cx="77" cy="51" r="1" fill="white"/>
<circle cx="74" cy="56" r="7" fill="black"/>
<circle cx="77" cy="52" r="1" fill="white"/>
</g>
</g>
<defs>
<filter id="filter0_d_35:1022" x="0" y="0" width="115" height="115" filterUnits="userSpaceOnUse" color-interpolation-filters="sRGB">
<feFlood flood-opacity="0" result="BackgroundImageFix"/>
<feColorMatrix in="SourceAlpha" type="matrix" values="0 0 0 0 0 0 0 0 0 0 0 0 0 0 0 0 0 0 127 0" result="hardAlpha"/>
<feOffset dy="4"/>
<feGaussianBlur stdDeviation="2"/>
<feComposite in2="hardAlpha" operator="out"/>
<feColorMatrix type="matrix" values="0 0 0 0 0 0 0 0 0 0 0 0 0 0 0 0 0 0 0.25 0"/>
<feBlend mode="normal" in2="BackgroundImageFix" result="effect1_dropShadow_35:1022"/>
<feBlend mode="normal" in="SourceGraphic" in2="effect1_dropShadow_35:1022" result="shape"/>
</filter>
<filter id="filter1_d_35:1022" x="13" y="16" width="89" height="77" filterUnits="userSpaceOnUse" color-interpolation-filters="sRGB">
<feFlood flood-opacity="0" result="BackgroundImageFix"/>
<feColorMatrix in="SourceAlpha" type="matrix" values="0 0 0 0 0 0 0 0 0 0 0 0 0 0 0 0 0 0 127 0" result="hardAlpha"/>
<feOffset dy="4"/>
<feGaussianBlur stdDeviation="2"/>
<feComposite in2="hardAlpha" operator="out"/>
<feColorMatrix type="matrix" values="0 0 0 0 0 0 0 0 0 0 0 0 0 0 0 0 0 0 0.25 0"/>
<feBlend mode="normal" in2="BackgroundImageFix" result="effect1_dropShadow_35:1022"/>
<feBlend mode="normal" in="SourceGraphic" in2="effect1_dropShadow_35:1022" result="shape"/>
</filter>
<filter id="filter2_d_35:1022" x="32" y="47" width="20" height="20" filterUnits="userSpaceOnUse" color-interpolation-filters="sRGB">
<feFlood flood-opacity="0" result="BackgroundImageFix"/>
<feColorMatrix in="SourceAlpha" type="matrix" values="0 0 0 0 0 0 0 0 0 0 0 0 0 0 0 0 0 0 127 0" result="hardAlpha"/>
<feOffset dx="-1" dy="1"/>
<feGaussianBlur stdDeviation="0.5"/>
<feComposite in2="hardAlpha" operator="out"/>
<feColorMatrix type="matrix" values="0 0 0 0 0 0 0 0 0 0 0 0 0 0 0 0 0 0 0.25 0"/>
<feBlend mode="normal" in2="BackgroundImageFix" result="effect1_dropShadow_35:1022"/>
<feBlend mode="normal" in="SourceGraphic" in2="effect1_dropShadow_35:1022" result="shape"/>
</filter>
<filter id="filter3_d_35:1022" x="65" y="47" width="20" height="20" filterUnits="userSpaceOnUse" color-interpolation-filters="sRGB">
<feFlood flood-opacity="0" result="BackgroundImageFix"/>
<feColorMatrix in="SourceAlpha" type="matrix" values="0 0 0 0 0 0 0 0 0 0 0 0 0 0 0 0 0 0 127 0" result="hardAlpha"/>
<feOffset dx="1" dy="1"/>
<feGaussianBlur stdDeviation="0.5"/>
<feComposite in2="hardAlpha" operator="out"/>
<feColorMatrix type="matrix" values="0 0 0 0 0 0 0 0 0 0 0 0 0 0 0 0 0 0 0.25 0"/>
<feBlend mode="normal" in2="BackgroundImageFix" result="effect1_dropShadow_35:1022"/>
<feBlend mode="normal" in="SourceGraphic" in2="effect1_dropShadow_35:1022" result="shape"/>
</filter>
</defs>
</svg>
