<svg width="107" height="107" viewBox="0 0 107 107" fill="none" xmlns="http://www.w3.org/2000/svg">
<circle cx="53.5" cy="53.5" r="53.5" fill="#50504F"/>
<g filter="url(#filter0_d_35:1025)">
<path d="M94 70.025C94 86.6792 93.2932 86.6792 56 86.6792C14 86.6792 13 86.6131 13 65.9876C13 45.3621 31.4086 32.6792 53.5 32.6792C75.5914 32.6792 94 49.3995 94 70.025Z" fill="#FFF8ED"/>
<path d="M38 35.6792C41.5 40.6792 43 54.1792 27 54.1792C20.6487 54.1792 13 71.8965 13 61.6792C13 51.4619 21 24.1792 26.5 20.6792C31.1401 17.7264 34 24.1792 38 35.6792Z" fill="#FFBB38"/>
<path d="M70.5 36.1792C57.5 41.1792 54.5 60.1792 58 67.1792C66 81.6792 94 77.3965 94 67.1792C94 56.962 85.6201 24.1792 80.1201 20.6792C75.48 17.7263 74.5 24.6792 70.5 36.1792Z" fill="#FFBB38"/>
<g filter="url(#filter1_d_35:1025)">
<circle cx="39" cy="57.6792" r="9" fill="white"/>
</g>
<g filter="url(#filter2_d_35:1025)">
<circle cx="70" cy="57.6792" r="9" fill="white"/>
</g>
<path d="M46.2678 57.717C46.2678 61.583 43.1338 64.717 39.2678 64.717C35.4018 64.717 32.2678 61.583 32.2678 57.717C32.2678 53.8511 35.4018 50.717 39.2678 50.717C43.1338 50.717 46.2678 53.8511 46.2678 57.717Z" fill="#0CA7FF"/>
<circle cx="70" cy="57.6792" r="7" fill="#0CA7FF"/>
<circle cx="43" cy="53.6792" r="1" fill="white"/>
<circle cx="74" cy="53.6792" r="1" fill="white"/>
</g>
<g filter="url(#filter3_i_35:1025)">
<path fill-rule="evenodd" clip-rule="evenodd" d="M92.1898 16.368C94.0226 18.2912 95.7136 20.3508 97.2461 22.5299L97.7977 83.2106C96.3047 85.4174 94.6514 87.5069 92.8543 89.4622L92.1898 16.368ZM80.5686 7.14047L81.4027 98.8981C79.7982 99.8831 78.1377 100.786 76.4271 101.6L75.5446 4.52953C77.2702 5.31286 78.9468 6.18512 80.5686 7.14047ZM63.453 0.702959L64.407 105.648C62.7689 105.989 61.1033 106.255 59.414 106.442L58.4464 0C60.1393 0.156676 61.8094 0.392232 63.453 0.702959ZM45.8756 0.302675L46.8398 106.365C45.1447 106.156 43.474 105.868 41.8318 105.504L40.8841 1.255C42.5199 0.861105 44.1851 0.542379 45.8756 0.302675ZM27.3258 6.57309L28.1791 100.435C26.4435 99.5034 24.7652 98.4783 23.151 97.367L22.3544 9.73248C23.9485 8.59175 25.6079 7.53639 27.3258 6.57309ZM11.9349 19.5266L12.5552 87.762C10.6825 85.5437 8.98697 83.171 7.49048 80.6656L7 26.713C8.45106 24.1802 10.1033 21.7775 11.9349 19.5266Z" fill="#AAAAAA"/>
</g>
<defs>
<filter id="filter0_d_35:1025" x="9" y="19.9661" width="89" height="74.7131" filterUnits="userSpaceOnUse" color-interpolation-filters="sRGB">
<feFlood flood-opacity="0" result="BackgroundImageFix"/>
<feColorMatrix in="SourceAlpha" type="matrix" values="0 0 0 0 0 0 0 0 0 0 0 0 0 0 0 0 0 0 127 0" result="hardAlpha"/>
<feOffset dy="4"/>
<feGaussianBlur stdDeviation="2"/>
<feComposite in2="hardAlpha" operator="out"/>
<feColorMatrix type="matrix" values="0 0 0 0 0 0 0 0 0 0 0 0 0 0 0 0 0 0 0.25 0"/>
<feBlend mode="normal" in2="BackgroundImageFix" result="effect1_dropShadow_35:1025"/>
<feBlend mode="normal" in="SourceGraphic" in2="effect1_dropShadow_35:1025" result="shape"/>
</filter>
<filter id="filter1_d_35:1025" x="28" y="48.6792" width="20" height="20" filterUnits="userSpaceOnUse" color-interpolation-filters="sRGB">
<feFlood flood-opacity="0" result="BackgroundImageFix"/>
<feColorMatrix in="SourceAlpha" type="matrix" values="0 0 0 0 0 0 0 0 0 0 0 0 0 0 0 0 0 0 127 0" result="hardAlpha"/>
<feOffset dx="-1" dy="1"/>
<feGaussianBlur stdDeviation="0.5"/>
<feComposite in2="hardAlpha" operator="out"/>
<feColorMatrix type="matrix" values="0 0 0 0 0 0 0 0 0 0 0 0 0 0 0 0 0 0 0.25 0"/>
<feBlend mode="normal" in2="BackgroundImageFix" result="effect1_dropShadow_35:1025"/>
<feBlend mode="normal" in="SourceGraphic" in2="effect1_dropShadow_35:1025" result="shape"/>
</filter>
<filter id="filter2_d_35:1025" x="61" y="48.6792" width="20" height="20" filterUnits="userSpaceOnUse" color-interpolation-filters="sRGB">
<feFlood flood-opacity="0" result="BackgroundImageFix"/>
<feColorMatrix in="SourceAlpha" type="matrix" values="0 0 0 0 0 0 0 0 0 0 0 0 0 0 0 0 0 0 127 0" result="hardAlpha"/>
<feOffset dx="1" dy="1"/>
<feGaussianBlur stdDeviation="0.5"/>
<feComposite in2="hardAlpha" operator="out"/>
<feColorMatrix type="matrix" values="0 0 0 0 0 0 0 0 0 0 0 0 0 0 0 0 0 0 0.25 0"/>
<feBlend mode="normal" in2="BackgroundImageFix" result="effect1_dropShadow_35:1025"/>
<feBlend mode="normal" in="SourceGraphic" in2="effect1_dropShadow_35:1025" result="shape"/>
</filter>
<filter id="filter3_i_35:1025" x="7" y="0" width="90.7976" height="110.442" filterUnits="userSpaceOnUse" color-interpolation-filters="sRGB">
<feFlood flood-opacity="0" result="BackgroundImageFix"/>
<feBlend mode="normal" in="SourceGraphic" in2="BackgroundImageFix" result="shape"/>
<feColorMatrix in="SourceAlpha" type="matrix" values="0 0 0 0 0 0 0 0 0 0 0 0 0 0 0 0 0 0 127 0" result="hardAlpha"/>
<feOffset dy="4"/>
<feGaussianBlur stdDeviation="2"/>
<feComposite in2="hardAlpha" operator="arithmetic" k2="-1" k3="1"/>
<feColorMatrix type="matrix" values="0 0 0 0 0 0 0 0 0 0 0 0 0 0 0 0 0 0 0.25 0"/>
<feBlend mode="normal" in2="shape" result="effect1_innerShadow_35:1025"/>
</filter>
</defs>
</svg>
