<svg width="107" height="107" viewBox="0 0 107 107" fill="none" xmlns="http://www.w3.org/2000/svg">
<circle cx="53.5" cy="53.5" r="53.5" fill="#F7B2C2"/>
<g filter="url(#filter0_d_35:1027)">
<path d="M94.5808 67.0963C94.5808 83.7505 93.874 83.7505 56.5808 83.7505C14.5808 83.7505 13.5808 83.6844 13.5808 63.0589C13.5808 42.4334 31.9894 29.7505 54.0808 29.7505C76.1722 29.7505 94.5808 46.4708 94.5808 67.0963Z" fill="#FFF8ED"/>
<path d="M37.0808 32.2504C31.5808 36.2504 16.3486 43.3761 14.5808 55.7504C13.5808 62.7505 13.4618 62.2505 13.0808 58.2505C12.0808 47.7505 20.5808 21.2504 26.0808 17.7504C30.721 14.7975 33.0808 20.7504 37.0808 32.2504Z" fill="#C2AE86"/>
<path d="M37.0808 32.2504C31.5808 36.2504 16.3486 43.3761 14.5808 55.7504C13.5808 62.7505 13.4618 62.2505 13.0808 58.2505C12.0808 47.7505 20.5808 21.2504 26.0808 17.7504C30.721 14.7975 33.0808 20.7504 37.0808 32.2504Z" fill="#C2AE86"/>
<path d="M69.5809 32.7505C75.0809 36.7505 88.7993 44.1105 92.5809 56.0247C94.0809 60.7505 94.0809 61.7505 94.0809 58.5247C94.0809 48.3074 86.5809 21.5246 81.0809 18.0246C76.4408 15.0718 73.5809 21.2505 69.5809 32.7505Z" fill="#C2AE86"/>
<path d="M69.5809 32.7505C75.0809 36.7505 88.7993 44.1105 92.5809 56.0247C94.0809 60.7505 94.0809 61.7505 94.0809 58.5247C94.0809 48.3074 86.5809 21.5246 81.0809 18.0246C76.4408 15.0718 73.5809 21.2505 69.5809 32.7505Z" fill="#C2AE86"/>
<path d="M82.5808 56.2505C82.5808 71.7505 65.6265 79.7505 54.5808 79.7505C43.5351 79.7505 27.0808 73.2505 27.0808 55.7505C27.0808 45.8094 43.5351 40.2505 54.5808 40.2505C65.6265 40.2505 82.5808 46.3094 82.5808 56.2505Z" fill="#C2AE86"/>
<g filter="url(#filter1_d_35:1027)">
<circle cx="39.5808" cy="54.7505" r="9" fill="white"/>
</g>
<g filter="url(#filter2_d_35:1027)">
<circle cx="70.5808" cy="54.7505" r="9" fill="white"/>
</g>
<path d="M46.8486 54.7883C46.8486 58.6543 43.7146 61.7883 39.8486 61.7883C35.9826 61.7883 32.8486 58.6543 32.8486 54.7883C32.8486 50.9223 35.9826 47.7883 39.8486 47.7883C43.7146 47.7883 46.8486 50.9223 46.8486 54.7883Z" fill="#8CCBEE"/>
<circle cx="43.5808" cy="50.7505" r="1" fill="white"/>
<circle cx="70.5808" cy="54.7505" r="7" fill="#8CCBEE"/>
<circle cx="74.5808" cy="50.7505" r="1" fill="white"/>
</g>
<g filter="url(#filter3_i_35:1027)">
<path fill-rule="evenodd" clip-rule="evenodd" d="M92.1898 16.368C94.0226 18.2912 95.7136 20.3508 97.2461 22.5299L97.7977 83.2106C96.3047 85.4174 94.6514 87.5069 92.8543 89.4622L92.1898 16.368ZM80.5686 7.14047L81.4027 98.8981C79.7982 99.8831 78.1377 100.786 76.4271 101.6L75.5446 4.52953C77.2702 5.31286 78.9468 6.18512 80.5686 7.14047ZM63.453 0.702959L64.407 105.648C62.7689 105.989 61.1033 106.255 59.414 106.442L58.4464 0C60.1393 0.156676 61.8094 0.392232 63.453 0.702959ZM45.8756 0.302675L46.8398 106.365C45.1447 106.156 43.474 105.868 41.8318 105.504L40.8841 1.255C42.5199 0.861105 44.1851 0.542379 45.8756 0.302675ZM27.3258 6.57309L28.1791 100.435C26.4435 99.5034 24.7652 98.4783 23.151 97.367L22.3544 9.73248C23.9485 8.59175 25.6079 7.53639 27.3258 6.57309ZM11.9349 19.5266L12.5552 87.762C10.6825 85.5437 8.98697 83.171 7.49048 80.6656L7 26.713C8.45106 24.1802 10.1033 21.7775 11.9349 19.5266Z" fill="#AAAAAA"/>
</g>
<defs>
<filter id="filter0_d_35:1027" x="9" y="17" width="89.5808" height="74.7505" filterUnits="userSpaceOnUse" color-interpolation-filters="sRGB">
<feFlood flood-opacity="0" result="BackgroundImageFix"/>
<feColorMatrix in="SourceAlpha" type="matrix" values="0 0 0 0 0 0 0 0 0 0 0 0 0 0 0 0 0 0 127 0" result="hardAlpha"/>
<feOffset dy="4"/>
<feGaussianBlur stdDeviation="2"/>
<feComposite in2="hardAlpha" operator="out"/>
<feColorMatrix type="matrix" values="0 0 0 0 0 0 0 0 0 0 0 0 0 0 0 0 0 0 0.25 0"/>
<feBlend mode="normal" in2="BackgroundImageFix" result="effect1_dropShadow_35:1027"/>
<feBlend mode="normal" in="SourceGraphic" in2="effect1_dropShadow_35:1027" result="shape"/>
</filter>
<filter id="filter1_d_35:1027" x="28.5808" y="45.7505" width="20" height="20" filterUnits="userSpaceOnUse" color-interpolation-filters="sRGB">
<feFlood flood-opacity="0" result="BackgroundImageFix"/>
<feColorMatrix in="SourceAlpha" type="matrix" values="0 0 0 0 0 0 0 0 0 0 0 0 0 0 0 0 0 0 127 0" result="hardAlpha"/>
<feOffset dx="-1" dy="1"/>
<feGaussianBlur stdDeviation="0.5"/>
<feComposite in2="hardAlpha" operator="out"/>
<feColorMatrix type="matrix" values="0 0 0 0 0 0 0 0 0 0 0 0 0 0 0 0 0 0 0.25 0"/>
<feBlend mode="normal" in2="BackgroundImageFix" result="effect1_dropShadow_35:1027"/>
<feBlend mode="normal" in="SourceGraphic" in2="effect1_dropShadow_35:1027" result="shape"/>
</filter>
<filter id="filter2_d_35:1027" x="61.5808" y="45.7505" width="20" height="20" filterUnits="userSpaceOnUse" color-interpolation-filters="sRGB">
<feFlood flood-opacity="0" result="BackgroundImageFix"/>
<feColorMatrix in="SourceAlpha" type="matrix" values="0 0 0 0 0 0 0 0 0 0 0 0 0 0 0 0 0 0 127 0" result="hardAlpha"/>
<feOffset dx="1" dy="1"/>
<feGaussianBlur stdDeviation="0.5"/>
<feComposite in2="hardAlpha" operator="out"/>
<feColorMatrix type="matrix" values="0 0 0 0 0 0 0 0 0 0 0 0 0 0 0 0 0 0 0.25 0"/>
<feBlend mode="normal" in2="BackgroundImageFix" result="effect1_dropShadow_35:1027"/>
<feBlend mode="normal" in="SourceGraphic" in2="effect1_dropShadow_35:1027" result="shape"/>
</filter>
<filter id="filter3_i_35:1027" x="7" y="0" width="90.7976" height="110.442" filterUnits="userSpaceOnUse" color-interpolation-filters="sRGB">
<feFlood flood-opacity="0" result="BackgroundImageFix"/>
<feBlend mode="normal" in="SourceGraphic" in2="BackgroundImageFix" result="shape"/>
<feColorMatrix in="SourceAlpha" type="matrix" values="0 0 0 0 0 0 0 0 0 0 0 0 0 0 0 0 0 0 127 0" result="hardAlpha"/>
<feOffset dy="4"/>
<feGaussianBlur stdDeviation="2"/>
<feComposite in2="hardAlpha" operator="arithmetic" k2="-1" k3="1"/>
<feColorMatrix type="matrix" values="0 0 0 0 0 0 0 0 0 0 0 0 0 0 0 0 0 0 0.25 0"/>
<feBlend mode="normal" in2="shape" result="effect1_innerShadow_35:1027"/>
</filter>
</defs>
</svg>
