<svg width="91" height="107" viewBox="0 0 91 107" fill="none" xmlns="http://www.w3.org/2000/svg">
<g filter="url(#filter0_i_35:1013)">
<path fill-rule="evenodd" clip-rule="evenodd" d="M85.1898 16.368C87.0226 18.2912 88.7136 20.3508 90.2461 22.5299L90.7977 83.2106C89.3047 85.4174 87.6514 87.5069 85.8543 89.4622L85.1898 16.368ZM73.5686 7.14047L74.4027 98.8981C72.7982 99.8831 71.1377 100.786 69.4271 101.6L68.5446 4.52953C70.2702 5.31286 71.9468 6.18512 73.5686 7.14047ZM56.453 0.702959L57.407 105.648C55.7689 105.989 54.1033 106.255 52.414 106.442L51.4464 0C53.1393 0.156676 54.8094 0.392232 56.453 0.702959ZM38.8756 0.302675L39.8398 106.365C38.1447 106.156 36.474 105.868 34.8318 105.504L33.8841 1.255C35.5199 0.861105 37.1851 0.542379 38.8756 0.302675ZM20.3258 6.57309L21.1791 100.435C19.4435 99.5034 17.7652 98.4783 16.151 97.367L15.3544 9.73248C16.9485 8.59175 18.6079 7.53639 20.3258 6.57309ZM4.93488 19.5266L5.5552 87.762C3.68248 85.5437 1.98697 83.171 0.490479 80.6656L0 26.713C1.45106 24.1802 3.10328 21.7775 4.93488 19.5266Z" fill="#AAAAAA"/>
</g>
<defs>
<filter id="filter0_i_35:1013" x="0" y="0" width="90.7976" height="110.442" filterUnits="userSpaceOnUse" color-interpolation-filters="sRGB">
<feFlood flood-opacity="0" result="BackgroundImageFix"/>
<feBlend mode="normal" in="SourceGraphic" in2="BackgroundImageFix" result="shape"/>
<feColorMatrix in="SourceAlpha" type="matrix" values="0 0 0 0 0 0 0 0 0 0 0 0 0 0 0 0 0 0 127 0" result="hardAlpha"/>
<feOffset dy="4"/>
<feGaussianBlur stdDeviation="2"/>
<feComposite in2="hardAlpha" operator="arithmetic" k2="-1" k3="1"/>
<feColorMatrix type="matrix" values="0 0 0 0 0 0 0 0 0 0 0 0 0 0 0 0 0 0 0.25 0"/>
<feBlend mode="normal" in2="shape" result="effect1_innerShadow_35:1013"/>
</filter>
</defs>
</svg>
