<svg width="107" height="107" viewBox="0 0 107 107" fill="none" xmlns="http://www.w3.org/2000/svg">
<circle cx="53.5" cy="53.5" r="53.5" fill="#B659FF"/>
<g filter="url(#filter0_d_35:1028)">
<path d="M94 67.8709C94 84.5251 93.2932 84.5251 56 84.5251C14 84.5251 13 84.4591 13 63.8336C13 43.208 31.4086 30.5251 53.5 30.5251C75.5914 30.5251 94 47.2454 94 67.8709Z" fill="black"/>
<path d="M38.5 37.0251C38.5 47.2424 33.8513 52.0251 27.5 52.0251C21.1487 52.0251 13.5 69.2425 13.5 59.0252C13.5 48.8079 21 22.0252 26.5 18.5252C31.1401 15.5723 34.5 25.5251 38.5 37.0251Z" fill="black"/>
<path d="M68.1201 37.0251C68.1201 47.2424 72.7688 52.0251 79.1201 52.0251C87.1201 62.5251 94 75.2425 94 65.0252C94 54.8079 85.6201 22.0251 80.1201 18.5251C75.48 15.5723 72.1201 25.5251 68.1201 37.0251Z" fill="black"/>
<circle cx="39" cy="55.5251" r="9" fill="white"/>
<circle cx="70" cy="55.5251" r="9" fill="white"/>
<path d="M46.2678 55.563C46.2678 59.429 43.1338 62.563 39.2678 62.563C35.4018 62.563 32.2678 59.429 32.2678 55.563C32.2678 51.697 35.4018 48.563 39.2678 48.563C43.1338 48.563 46.2678 51.697 46.2678 55.563Z" fill="black"/>
<circle cx="70" cy="55.5251" r="7" fill="black"/>
<circle cx="42" cy="51.5251" r="1" fill="white"/>
<circle cx="73" cy="51.5251" r="1" fill="white"/>
</g>
<defs>
<filter id="filter0_d_35:1028" x="9" y="18" width="89" height="74.5251" filterUnits="userSpaceOnUse" color-interpolation-filters="sRGB">
<feFlood flood-opacity="0" result="BackgroundImageFix"/>
<feColorMatrix in="SourceAlpha" type="matrix" values="0 0 0 0 0 0 0 0 0 0 0 0 0 0 0 0 0 0 127 0" result="hardAlpha"/>
<feOffset dy="4"/>
<feGaussianBlur stdDeviation="2"/>
<feComposite in2="hardAlpha" operator="out"/>
<feColorMatrix type="matrix" values="0 0 0 0 0 0 0 0 0 0 0 0 0 0 0 0 0 0 0.25 0"/>
<feBlend mode="normal" in2="BackgroundImageFix" result="effect1_dropShadow_35:1028"/>
<feBlend mode="normal" in="SourceGraphic" in2="effect1_dropShadow_35:1028" result="shape"/>
</filter>
</defs>
</svg>
